<svg width="116" height="44" viewBox="0 0 116 44" fill="none" xmlns="http://www.w3.org/2000/svg">
<path d="M21.6745 37.2779C13.5953 37.2779 7.21701 31.3168 7.21701 22.3752C7.21701 13.8593 12.7449 7.47239 21.6745 7.47239C25.5015 7.47239 29.3285 9.17556 31.8798 11.7303L36.9824 6.6208C33.1554 2.78865 27.6276 0.233893 21.6745 0.233893C8.91789 0.233893 -0.0117188 9.60136 -0.0117188 22.3752C-0.0117188 36.0006 9.76833 44.5164 21.6745 44.5164C27.6276 44.5164 33.1554 41.9617 36.9824 38.1295L31.8798 33.02C29.3285 35.5748 25.5015 37.2779 21.6745 37.2779ZM44.2112 0.659696V44.0906H51.4399C62.0704 44.0906 76.5279 41.1101 76.5279 22.3752C76.5279 3.21445 61.6452 0.659696 51.4399 0.659696H44.2112ZM51.4399 36.8522V7.47239C51.4399 7.47239 69.2991 4.91763 69.2991 21.9494C69.7243 39.4069 51.4399 36.8522 51.4399 36.8522ZM99.915 32.1684C108.845 32.1684 116.073 24.9299 116.073 15.9883C116.073 7.04659 108.845 -0.191895 99.915 -0.191895C90.9854 -0.191895 83.7566 7.04659 83.7566 15.9883C83.7566 24.9299 90.9854 32.1684 99.915 32.1684ZM99.915 7.0466C105.018 7.0466 108.845 10.8787 108.845 15.9883C108.845 21.0978 105.018 24.9299 99.915 24.9299C94.8123 24.9299 90.9853 21.0978 90.9853 15.9883C90.9853 11.3045 95.2376 7.0466 99.915 7.0466ZM113.947 36.8522H85.4575V44.0906H113.947V36.8522Z" fill="#74D414"/>
</svg>
